<!-- Created with Inkscape (http://www.inkscape.org/) -->
<svg xmlns:rdf="http://www.w3.org/1999/02/22-rdf-syntax-ns#" xmlns="http://www.w3.org/2000/svg" height="53.925mm" width="107.85mm" version="1.1" xmlns:cc="http://creativecommons.org/ns#" xmlns:dc="http://purl.org/dc/elements/1.1/" viewBox="0 0 382.14369 191.07184">
<metadata>
<rdf:RDF>
<cc:Work rdf:about="">
<dc:format>image/svg+xml</dc:format>
<dc:type rdf:resource="http://purl.org/dc/dcmitype/StillImage"/>
<dc:title/>
</cc:Work>
</rdf:RDF>
</metadata>
<g transform="translate(-167.17 -362.13)">
<g fill-rule="evenodd" transform="translate(183.85 378.81)">
<path style="color-rendering:auto;text-decoration-color:#000000;color:#000000;isolation:auto;mix-blend-mode:normal;shape-rendering:auto;solid-color:#000000;block-progression:tb;text-decoration-line:none;text-decoration-style:solid;image-rendering:auto;white-space:normal;text-indent:0;text-transform:none" d="m-16.646 170.81 38.566 0.72414c0.02455-1.3052 0.06587-2.6104 0.12388-3.915l-38.535-1.7118c-0.0725 1.6333-0.12411 3.2677-0.15476 4.9027zm2.8155-29.344 15.201 2.6464c0.25767-1.4799 0.53421-2.9564 0.82953-4.4292l-15.128-3.033c-0.32128 1.6014-0.6221 3.2068-0.90238 4.8158zm7.2816-28.576 14.61 4.9532c0.48272-1.4239 0.98392-2.8416 1.5035-4.2527l-14.477-5.3317c-0.56579 1.537-1.1115 3.0809-1.637 4.6312zm11.644-27.143 13.66 7.172c0.69885-1.331 1.4148-2.653 2.1476-3.9656l-13.472-7.521c-0.79701 1.4278-1.5758 2.8661-2.3362 4.3143zm15.671-24.971 12.401 9.181c0.89379-1.2073 1.803-2.4032 2.7272-3.5874l-12.163-9.4938c-1.0049 1.2874-1.9933 2.5876-2.9649 3.9001zm19.31-22.279 27.114 27.434c0.92795-0.91722 1.868-1.8227 2.8197-2.7161l-26.4-28.122c-1.1924 1.1193-2.3706 2.2541-3.5342 3.4041zm22.503-19.049 9.036 12.506c1.2176-0.87971 2.4464-1.7439 3.6859-2.5923l-8.715-12.733c-1.3477 0.92233-2.6836 1.8618-4.0073 2.8181zm25.151-15.379 7.011 13.743c1.3392-0.68323 2.6872-1.3492 4.0438-1.9977l-6.654-13.92c-1.477 0.7065-2.944 1.4315-4.401 2.1749zm27.279-11.322 4.78 14.668c1.4294-0.46587 2.8648-0.91322 4.3056-1.342l-4.3999-14.786c-1.5679 0.46669-3.1302 0.95365-4.6862 1.4608zm28.659-6.9473 2.4697 15.231c1.4828-0.24046 2.9686-0.46203 4.457-0.66465l-2.0811-15.289c-1.6182 0.22035-3.2335 0.46133-4.8455 0.72286zm29.373-2.4736 0.27346 38.571c0.35999-0.0026 0.71997-0.0038 1.0799-0.0038 0.94511 0.00001 1.8904 0.0088 2.8356 0.02645l0.71742-38.566c-1.1841-0.02199-2.3685-0.033-3.553-0.03299-0.45115-0.000004-0.90229 0.0016-1.3534 0.0048zm29.41 2.0598-2.2556 15.264c1.486 0.21961 2.9692 0.45815 4.4491 0.71554l2.6435-15.201c-1.609-0.27998-3.2215-0.53942-4.837-0.77827zm28.747 6.5403-4.5707 14.734c1.4358 0.44542 2.866 0.9094 4.29 1.3919l4.9506-14.611c-1.5504-0.52525-3.1072-1.0303-4.6699-1.5152zm27.437 10.93-6.815 13.841c1.3488 0.66413 2.689 1.3457 4.0202 2.0443l7.17-13.66c-1.45-0.7599-2.91-1.5015-4.38-2.2244zm25.371 15.026-8.86 12.632c1.2298 0.86252 2.4486 1.7407 3.6561 2.6343l9.1787-12.403c-1.3127-0.97142-2.6378-1.9261-3.9748-2.8638zm22.764 18.727-26.722 27.816c0.73335 0.70452 1.4595 1.4163 2.1783 2.1352 0.20369 0.20366 0.40681 0.40792 0.60936 0.61276l27.429-27.119c-0.25395-0.25688-0.50864-0.51304-0.76406-0.7685-0.90155-0.90146-1.812-1.7937-2.7311-2.6767zm19.627 22.008-12.271 9.3542c0.91066 1.1946 1.8061 2.4008 2.686 3.6183l12.505-9.0388c-0.95659-1.3235-1.93-2.6349-2.9201-3.9337zm16.018 24.743-13.557 7.3653c0.71764 1.3209 1.4183 2.6511 2.1018 3.9902l13.742-7.0139c-0.74375-1.4572-1.5061-2.9045-2.2867-4.3416zm12.031 26.968-14.538 5.1622c0.5031 1.4169 0.98774 2.8403 1.4539 4.2696l14.667-4.783c-0.50743-1.556-1.035-3.1057-1.5828-4.6488zm7.6874 28.478-15.162 2.8597c0.27845 1.4761 0.53808 2.9557 0.77882 4.4384l15.23-2.4726c-0.26184-1.612-0.54425-3.2207-0.84715-4.8256zm3.1432 27.102-38.535 1.7112c0.058 1.3046 0.0993 2.6098 0.12381 3.915l38.566-0.72347c-0.0306-1.635-0.0822-3.2694-0.15468-4.9027z"/>
<path style="color-rendering:auto;text-decoration-color:#000000;color:#000000;isolation:auto;mix-blend-mode:normal;shape-rendering:auto;solid-color:#000000;block-progression:tb;text-decoration-line:none;text-decoration-style:solid;image-rendering:auto;white-space:normal;text-indent:0;text-transform:none" d="m-16.679 174.39h38.572c0.000033-3.2121 0.1019-6.426 0.30462-9.6345l-38.496-2.431c-0.25345 4.0153-0.38064 8.0395-0.38061 12.065zm54.228-133.35 27.626 26.918c0.45844-0.47046 0.91989-0.9379 1.3843-1.4022 1.806-1.8063 3.6587-3.5677 5.555-5.282l-25.868-28.612c-2.3746 2.147-4.696 4.3541-6.9612 6.6191-0.58237 0.58243-1.1609 1.1686-1.7356 1.7584zm131.9-57.658 0.99691 38.56c1.314-0.03402 2.6282-0.05108 3.9422-0.05109 1.8982 0.00002 3.797 0.0356 5.695 0.10654l1.4391-38.546c-2.3764-0.08864-4.7549-0.13305-7.134-0.13303-1.6468-0.000013-3.2934 0.02126-4.9391 0.06376zm134.71 50.763-26.19 28.313c1.4472 1.3389 2.868 2.7054 4.261 4.0987 0.87744 0.87732 1.7443 1.7656 2.6003 2.6646l27.934-26.599c-1.0727-1.1266-2.1593-2.2402-3.2596-3.3406-1.7473-1.7471-3.528-3.4597-5.3407-5.1369zm60.924 128.18-38.496 2.431c0.20272 3.2085 0.30459 6.4224 0.30462 9.6345h38.572c0.00003-4.0259-0.12716-8.0501-0.38061-12.065z"/>
</g>
</g>
</svg>
