<!-- Created with Inkscape (http://www.inkscape.org/) -->
<svg xmlns:rdf="http://www.w3.org/1999/02/22-rdf-syntax-ns#" xmlns="http://www.w3.org/2000/svg" height="54.703" width="44.579" version="1.1" xmlns:cc="http://creativecommons.org/ns#" xmlns:dc="http://purl.org/dc/elements/1.1/" viewBox="0 0 44.579251 54.702736">
<metadata>
<rdf:RDF>
<cc:Work rdf:about="">
<dc:format>image/svg+xml</dc:format>
<dc:type rdf:resource="http://purl.org/dc/dcmitype/StillImage"/>
<dc:title/>
</cc:Work>
</rdf:RDF>
</metadata>
<g transform="translate(3.2598 -999.85)">
<path d="m0.53422 1003.7v26.966l18.496 18.496 18.496-18.496v-26.966z" fill-opacity=".53140" fill-rule="evenodd"/>
<path style="color-rendering:auto;text-decoration-color:#000000;color:#000000;isolation:auto;mix-blend-mode:normal;shape-rendering:auto;solid-color:#000000;block-progression:tb;text-decoration-line:none;text-decoration-style:solid;image-rendering:auto;white-space:normal;text-indent:0;text-transform:none" d="m-3.2598 999.85v1.9199 30.494l22.289 22.289 22.291-22.289v-32.414h-44.58zm3.8379 3.8379h36.902v26.986l-18.451 18.451-18.451-18.451v-26.986z" fill-opacity=".72464" fill-rule="evenodd" fill="#fff"/>
<g fill="#fff" fill-opacity=".72549">
<path d="m8.1736 1017.3h0.91595q1.967 0 2.9581-0.7808 1.006-0.7808 1.006-2.5376 0-1.6367-0.90094-2.4175-0.88592-0.7808-2.7929-0.7808h-1.1862v6.5167zm9.595-3.4836q0 1.4415-0.43545 2.7629t-1.4415 2.3274q-0.99103 1.0061-2.6277 1.6067-1.6217 0.6006-4.0242 0.6006h-1.0661v7.8081h-4.6548v-21.953h6.0963q2.1172 0 3.6488 0.4805 1.5466 0.4655 2.5376 1.3514 1.006 0.8709 1.4865 2.1473 0.4805 1.2613 0.4805 2.8679z"/>
<path d="m34.541 1028.9h-12.643v-21.953h12.643v3.814h-7.9883v4.82h7.4327v3.8139h-7.4327v5.6609h7.9883v3.844z"/>
</g>
</g>
</svg>
