<!-- Created with Inkscape (http://www.inkscape.org/) -->
<svg xmlns:rdf="http://www.w3.org/1999/02/22-rdf-syntax-ns#" xmlns="http://www.w3.org/2000/svg" height="54.703" width="44.579" version="1.1" xmlns:cc="http://creativecommons.org/ns#" xmlns:dc="http://purl.org/dc/elements/1.1/" viewBox="0 0 44.579251 54.702736">
<metadata>
<rdf:RDF>
<cc:Work rdf:about="">
<dc:format>image/svg+xml</dc:format>
<dc:type rdf:resource="http://purl.org/dc/dcmitype/StillImage"/>
<dc:title/>
</cc:Work>
</rdf:RDF>
</metadata>
<g transform="translate(3.2598 -999.85)">
<path d="m0.53422 1003.7v26.966l18.496 18.496 18.496-18.496v-26.966z" fill-opacity=".53140" fill-rule="evenodd"/>
<g fill-opacity=".72464" fill="#fff" transform="translate(-.046090 -1.0714)">
<path d="m13.758 1025.4h-5.7685l-1.1717 4.6418h-4.3113l6.1591-21.872h4.4465l6.144 21.872h-4.3113l-1.1867-4.6418zm-4.8972-3.4401h4.0259l-1.9679-7.7364h-0.09013l-1.9679 7.7364z"/>
<path d="m25.265 1022.2v7.8415h-4.2813v-21.872h7.6012q3.2748 0 5.1676 1.9379 1.8928 1.9378 1.8928 5.0774 0 3.1547-1.9078 5.0925-1.8928 1.9229-5.1526 1.9229h-3.3199zm0-3.4251h3.3199q1.367 0 2.0881-1.0065 0.72106-1.0064 0.72106-2.5537 0-1.5623-0.72106-2.5838-0.70604-1.0366-2.0881-1.0366h-3.3199v7.1806z"/>
</g>
<path style="color-rendering:auto;text-decoration-color:#000000;color:#000000;isolation:auto;mix-blend-mode:normal;shape-rendering:auto;solid-color:#000000;block-progression:tb;text-decoration-line:none;text-decoration-style:solid;image-rendering:auto;white-space:normal;text-indent:0;text-transform:none" d="m-3.2598 999.85v1.9199 30.494l22.289 22.289 22.291-22.289v-32.414h-44.58zm3.8379 3.8379h36.902v26.986l-18.451 18.451-18.451-18.451v-26.986z" fill-opacity=".72464" fill-rule="evenodd" fill="#fff"/>
</g>
</svg>
