<!-- Created with Inkscape (http://www.inkscape.org/) -->
<svg xmlns:rdf="http://www.w3.org/1999/02/22-rdf-syntax-ns#" xmlns="http://www.w3.org/2000/svg" height="53.924mm" width="107.85mm" version="1.1" xmlns:cc="http://creativecommons.org/ns#" xmlns:dc="http://purl.org/dc/elements/1.1/" viewBox="0 0 382.14164 191.07086">
<metadata>
<rdf:RDF>
<cc:Work rdf:about="">
<dc:format>image/svg+xml</dc:format>
<dc:type rdf:resource="http://purl.org/dc/dcmitype/StillImage"/>
<dc:title/>
</cc:Work>
</rdf:RDF>
</metadata>
<g transform="translate(-275.26 -668.21)">
<g transform="translate(291.93 684.88)">
<path opacity="0.99" d="m260.43 3.753c18.112 9.157 34.717 21.181 49.069 35.532l0.00001 0.000009c17.379 17.38 31.346 38.064 40.94 60.728 9.0132 21.34 14.039 44.226 14.892 67.306l-38.545 1.4268c-0.68314-18.434-4.7019-36.786-11.872-53.707-7.6143-18.022-18.831-34.623-32.69-48.48l-0.00001-0.000006c-11.44-11.445-24.75-21.088-39.19-28.388z" fill="#ef3827"/>
<path opacity="0.99" d="m42.328 36.309c13.934-13.325 29.856-24.516 47.125-33.107l17.177 34.531c-13.764 6.847-26.525 15.819-37.644 26.452z" fill="#71c837"/>
<path style="color-rendering:auto;text-decoration-color:#000000;color:#000000;isolation:auto;mix-blend-mode:normal;shape-rendering:auto;solid-color:#000000;block-progression:tb;text-decoration-line:none;text-decoration-style:solid;image-rendering:auto;white-space:normal;text-indent:0;text-transform:none" d="m-16.645 170.81 38.564 0.72344c0.02453-1.3052 0.06582-2.6104 0.12381-3.9151l-38.533-1.7111c-0.07247 1.6333-0.12405 3.2677-0.15468 4.9027zm2.815-29.344 15.199 2.6458c0.25783-1.4809 0.53453-2.9584 0.83006-4.4322l-15.126-3.0326c-0.3215 1.6025-0.6225 3.209-0.90295 4.819zm7.2822-28.579 14.608 4.9525c0.48239-1.4229 0.98324-2.8397 1.5025-4.2498l-14.475-5.3308c-0.56537 1.536-1.1107 3.0788-1.6358 4.628zm11.643-27.14 13.658 7.171c0.69883-1.3311 1.4148-2.6531 2.1475-3.9657l-13.469-7.519c-0.7968 1.428-1.5756 2.866-2.3359 4.314zm15.671-24.971 12.399 9.18c0.89377-1.2073 1.8029-2.4032 2.7272-3.5874l-12.162-9.493c-1.0048 1.2874-1.9932 2.5876-2.9648 3.9001zm19.309-22.279 27.113 27.432c0.92794-0.91724 1.868-1.8227 2.8196-2.7161l-26.399-28.12c-1.1923 1.1194-2.3705 2.2542-3.5341 3.4042zm22.502-19.05 9.0355 12.505c1.2184-0.88033 2.448-1.7451 3.6884-2.5941l-8.713-12.731c-1.3486 0.92295-2.6854 1.8631-4.01 2.8201zm25.154-15.38 7.011 13.741c1.3383-0.68277 2.6854-1.3483 4.041-1.9964l-6.654-13.918c-1.4756 0.70557-2.9418 1.43-4.3981 2.173zm27.274-11.321 4.7801 14.666c1.4294-0.4659 2.8648-0.91328 4.3056-1.3421l-4.3996-14.785c-1.5679 0.46672-3.1301 0.9537-4.6861 1.4609zm28.658-6.9478 2.4696 15.229c1.4828-0.24048 2.9686-0.46208 4.457-0.66472l-2.0811-15.287c-1.6181 0.22038-3.2335 0.46138-4.8455 0.72294zm29.373-2.4741 0.27411 38.569c0.36089-0.0026 0.72176-0.0039 1.0826-0.0039 0.94423 0.00001 1.8886 0.0088 2.833 0.0264l0.71672-38.564c-1.183-0.02195-2.3662-0.03294-3.5497-0.03293-0.45227-0.000004-0.90451 0.0016-1.3567 0.0048zm29.41 2.0593-2.2551 15.262c1.487 0.21974 2.9712 0.45842 4.4521 0.71599l2.6432-15.199c-1.6101-0.28017-3.2237-0.53977-4.8403-0.77875zm28.75 6.5407-4.5701 14.733c1.4349 0.44512 2.8641 0.90877 4.2871 1.3909l4.9497-14.609c-1.5493-0.52486-3.1051-1.0296-4.6667-1.5141zm27.434 10.928-6.8139 13.84c1.3489 0.66411 2.6891 1.3456 4.0202 2.0442l7.18-13.659c-1.4484-0.76008-2.9069-1.5017-4.375-2.2246zm25.371 15.025-8.8586 12.631c1.2298 0.86251 2.4487 1.7407 3.6561 2.6342l9.1773-12.402c-1.31-0.971-2.63-1.925-3.97-2.863zm22.765 18.726-26.72 27.815c0.73402 0.70513 1.4608 1.4175 2.1802 2.137 0.20306 0.20304 0.40556 0.40666 0.60748 0.61087l27.43-27.118c-0.25317-0.25608-0.50707-0.51145-0.76171-0.76611-0.90234-0.90224-1.8136-1.7953-2.7335-2.679zm19.627 22.008-12.269 9.3532c0.9113 1.1954 1.8074 2.4025 2.6879 3.6207l12.504-9.0377c-0.95724-1.3244-1.9314-2.6367-2.9221-3.9363zm16.02 24.745-13.555 7.3644c0.71715 1.32 1.4174 2.6493 2.1004 3.9875l13.74-7.0132c-0.74326-1.4562-1.5051-2.9025-2.2852-4.3386zm12.03 26.965-14.536 5.1618c0.50312 1.4169 0.98779 2.8403 1.4539 4.2696l14.665-4.7826c-0.50744-1.5559-1.0351-3.1057-1.5829-4.6488zm7.6879 28.477-15.16 2.8596c0.27847 1.4761 0.53813 2.9557 0.77889 4.4384l15.228-2.4725c-0.26187-1.612-0.5443-3.2206-0.84723-4.8255zm3.1437 27.102-38.533 1.7117c0.058 1.3046 0.0993 2.6098 0.12388 3.9151l38.564-0.72411c-0.0307-1.635-0.0823-3.2694-0.15476-4.9027z" fill-rule="evenodd"/>
<path style="color-rendering:auto;text-decoration-color:#000000;color:#000000;isolation:auto;mix-blend-mode:normal;shape-rendering:auto;solid-color:#000000;block-progression:tb;text-decoration-line:none;text-decoration-style:solid;image-rendering:auto;white-space:normal;text-indent:0;text-transform:none" d="m-16.678 174.39h38.57c0.000033-3.2122 0.1019-6.4261 0.30462-9.6346l-38.494-2.4308c-0.25344 4.0153-0.38064 8.0395-0.38061 12.065zm54.228-133.35 27.624 26.917c0.45845-0.47047 0.9199-0.9379 1.3843-1.4023 1.806-1.8063 3.6587-3.5677 5.555-5.2821l-25.867-28.611c-2.3746 2.147-4.6959 4.3541-6.9612 6.6191-0.58237 0.58243-1.1609 1.1686-1.7356 1.7584zm131.9-57.658 0.99685 38.558c1.314-0.03402 2.6283-0.05108 3.9422-0.05109 1.8982 0.00002 3.797 0.0356 5.695 0.10654l1.439-38.544c-2.3764-0.08864-4.7549-0.13305-7.134-0.13303-1.6468-0.000013-3.2933 0.02126-4.9391 0.06376zm134.71 50.763-26.194 28.312c1.4472 1.3389 2.868 2.7054 4.261 4.0987 0.87744 0.87732 1.7443 1.7656 2.6003 2.6646l27.933-26.597c-1.0727-1.1266-2.1593-2.2402-3.2596-3.3406-1.7473-1.7471-3.528-3.4597-5.3407-5.1369zm60.923 128.18-38.494 2.4308c0.20272 3.2085 0.30459 6.4224 0.30462 9.6346h38.57c0.00003-4.0259-0.12716-8.0501-0.38061-12.065z" fill-rule="evenodd"/>
</g>
</g>
</svg>
