<!-- Created with Inkscape (http://www.inkscape.org/) -->
<svg xmlns:rdf="http://www.w3.org/1999/02/22-rdf-syntax-ns#" xmlns="http://www.w3.org/2000/svg" height="34.254" width="99.887" version="1.1" xmlns:cc="http://creativecommons.org/ns#" xmlns:dc="http://purl.org/dc/elements/1.1/" viewBox="0 0 99.886721 34.254291">
<metadata>
<rdf:RDF>
<cc:Work rdf:about="">
<dc:format>image/svg+xml</dc:format>
<dc:type rdf:resource="http://purl.org/dc/dcmitype/StillImage"/>
<dc:title/>
</cc:Work>
</rdf:RDF>
</metadata>
<g transform="translate(-358.25 -24.407)">
<g>
<g fill="#909090">
<path d="m-3.2695 6.0039v26.68h9.3184v-7.3594c0-2.2-0.039219-2.7608-0.19922-3.8008h0.19922c0.08 0.28 0.16117 0.48148 0.20117 0.52148 0.36 0.68 0.72008 1.319 1.0801 1.959 0.2 0.32 0.40055 0.68102 0.56055 1.041l4.3984 7.6387h5.8027c-0.95748-1.7851-1.5244-3.7962-1.5586-5.5664-0.00013-0.0025 0.00004-0.0043 0-0.0059-0.04103-1.5603 0.03359-3.0482 0.22266-4.4551l-2.4668-3.6523 8.3613-13h-10.561l-3.5996 6.6797c-0.12 0.28-0.60031 1.0812-1.3203 2.2812-0.68 1.16-0.96109 1.8796-1.1211 2.5996h-0.19922c0.2-1.72 0.19922-2.0402 0.19922-4.2402v-7.3203h-9.3184z" transform="translate(361.52 22.658)"/>
<path d="m70.938 5.752v2.1406c1.8854 1.9649 2.8867 4.5275 2.8867 7.416 0 2.3016-0.6418 4.4491-1.8984 6.0723a0.71436 0.71436 0 0 1 -0.01172 0.01367 0.71436 0.71436 0 0 1 -0.04102 0.04687c-0.0075 0.0077-0.01544 0.01594-0.02344 0.02344-0.26756 0.32386-0.57488 0.59716-0.91211 0.83398v2.25l4.7832 7.1777a0.71436 0.71436 0 0 1 0.01367 0.01953 0.71436 0.71436 0 0 1 0.0293 0.03906c0.13312 0.20064 0.2065 0.42141 0.25195 0.64648h7.6426c3.32 0 6.5191-1.2004 9.0391-3.4004 2.68-2.4 3.9199-5.3997 3.9199-9.6797 0-8.52-5.7184-13.6-15.398-13.6h-10.281zm9.6406 8.1602h1.3594c3 0 5.041 2.1202 5.041 5.2402 0 3-2.081 5.1191-5.041 5.1191h-1.3594v-10.359z" transform="translate(361.52 22.658)"/>
<path d="m48.783 5.752v10.355a3.619 2.3714 61.145 0 1 2.1855 1.5098c0.79573 1.0441 1.1171 2.4326 1.1191 3.1211 0.0019 0.68847-0.12247 1.01-0.22266 1.2734-0.20022 0.52699-0.40467 0.79977-0.64648 1.1172-0.38158 0.50088-0.83618 1.0365-1.3418 1.6016l-0.07422 0.09375c-0.33721 0.42561-0.67805 0.8173-1.0195 1.2109v6.3965h9.4414v-8.5605l0.1582-0.08008c0.08 0.2 0.12016 0.35945 0.16016 0.43945 0.04 0.04 0.08117 0.20039 0.20117 0.40039l3.8398 7.8008h11.16l-6-9c-0.32-0.52-0.60039-0.72024-1.4004-1.2402v-0.24023c1.96-0.6 2.9206-1.1191 3.6406-2.0391 0.96-1.24 1.5195-3.0009 1.5195-4.9609 0-3.36-1.3993-5.9197-4.2793-7.6797-1.76-1.12-3.5204-1.5195-6.4004-1.5195h-12.041zm9.4414 7.3203h1.6797c1.28 0 2.1992 0.95836 2.1992 2.3184s-0.96055 2.2002-2.5605 2.2402h-1.3184v-4.5586z" transform="translate(361.52 22.658)"/>
<path d="m402.41 24.828c-0.8178-0.3065-1.5804-0.45279-2.2739-0.41555-1.3776 0.02723-2.6816 0.25078-3.9115 0.67494-0.004 0.0011-0.007 0.0048-0.011 0.0058-0.004 0.0011-0.008-0.000537-0.0115 0.000618-1.229 0.3547-2.3898 0.87249-3.4783 1.5502-1.1334 0.65268-2.2057 1.3973-3.2168 2.2327-0.001 0.000945-0.002 0.0018-0.003 0.0037-0.003 0.0037-0.009 0.0066-0.0145 0.0095-1.024 0.77221-1.9824 1.6728-2.8727 2.6968a1.2753 0.75114 62.878 0 0 -0.003 0.0089c-1.7656 2.1101-3.3245 4.4664-4.6707 7.0764-1.3872 2.6893-2.0308 6.0711-1.9289 10.08 0.0363 2.0243 0.76337 4.1634 2.0683 5.9454a1.2753 0.75114 62.878 0 0 0.0437 0.05575c1.2887 1.6319 2.7319 2.7843 4.2068 3.3461a1.2753 0.75114 62.878 0 0 0.0315 0.01198c1.6032 0.53922 3.1179 0.6802 4.5241 0.43025a1.2753 0.75114 62.878 0 0 0.0219 -0.0067c1.3288-0.30832 2.5967-0.71013 3.8026-1.2013l0.011-0.0058c2.5106-0.93926 4.7908-2.1352 6.8358-3.597a1.2753 0.75114 62.878 0 0 0.007 -0.0074c2.014-1.5148 3.9755-3.0808 5.875-4.7075a1.2753 0.75114 62.878 0 0 0.0379 -0.03445c0.0515-0.05463 0.3434-0.33368 0.81176-0.75365a1.2753 0.75114 62.878 0 0 0.0312 -0.02725c0.46369-0.49212 0.92509-1.0194 1.3815-1.5799l0.0233-0.03025c0.50659-0.53922 0.94805-1.047 1.3164-1.5165 0.20073-0.25589 0.3469-0.47203 0.45277-0.75325 0.053-0.14057 0.10221-0.2962 0.10155-0.57356-0.00066-0.27739-0.11328-0.79964-0.3935-1.2128a1.2753 0.75114 62.878 0 0 -1.1112 -0.57024l-0.80861 0.39241a1.2753 0.75114 62.878 0 0 -0.0287 0.01415c-0.49869 0.29048-1.0624 0.65282-1.6945 1.0884-0.57325 0.37786-1.1211 0.73301-1.6482 1.062-0.26338 0.1644-0.4752 0.28812-0.62539 0.37403-0.1501 0.08602-0.28803 0.14056-0.21405 0.11934a1.2753 0.75114 62.878 0 0 -0.0723 0.03112c-1.3787 0.68411-2.8992 1.4728-4.5615 2.3817-1.6533 0.83048-3.3407 1.6188-5.055 2.3602-1.699 0.66209-3.4135 1.1167-5.1491 1.3693-1.2086 0.12595-2.322 0.000994-3.3888-0.23778 0.29993-1.3878 0.72417-2.6532 1.3536-3.7261 2.0002 0.05195 3.8249-0.01625 5.392-0.25795a1.2753 0.75114 62.878 0 0 0.019 -0.0028c1.6435-0.32545 3.2678-0.7918 4.8776-1.3992a1.2753 0.75114 62.878 0 0 0.0219 -0.0067c2.2854-0.98835 4.278-2.5062 5.9718-4.5432a1.2753 0.75114 62.878 0 0 0.007 -0.0074c0.41852-0.52344 0.80899-1.0572 1.1748-1.6048 0.36296-0.54335 0.72263-1.1208 1.0778-1.7348a1.2753 0.75114 62.878 0 0 0.0187 -0.03701c0.76822-1.5586 1.1423-3.2577 1.0622-5.1154a1.2753 0.75114 62.878 0 0 -0.00056 -0.0052c-0.0946-2.0688-1.1361-4.289-2.7534-5.9909a1.2753 0.75114 62.878 0 0 -0.051 -0.05378c-0.83279-0.80165-1.7256-1.3452-2.6083-1.6058zm-0.6981 8.0068c-0.32044 0.91071-0.50247 1.9533-0.96015 2.7347a1.2753 0.75114 62.878 0 0 -0.01 0.0163c-0.87304 1.5986-1.947 2.928-3.2267 3.9872a1.2753 0.75114 62.878 0 0 -0.011 0.0058c-1.2289 1.0799-2.6382 1.8992-4.2282 2.4597-0.71618 0.23723-1.5044 0.20045-2.2532 0.31234 0.11882-0.15636 0.18126-0.2767 0.31911-0.44663l0.007-0.0074c1.9116-2.2594 3.8684-4.3367 5.8682-6.2284 1.3348-1.2627 2.8686-2.1357 4.4946-2.8333z"/>
</g>
<g fill="#2b2b2b" transform="translate(0 .17857)">
<path d="m-3.2695 6.0039v26.68h9.3184v-7.3594c0-2.2-0.039219-2.7608-0.19922-3.8008h0.19922c0.08 0.28 0.16117 0.48148 0.20117 0.52148 0.36 0.68 0.72008 1.319 1.0801 1.959 0.2 0.32 0.40055 0.68102 0.56055 1.041l4.3984 7.6387h5.8027c-0.95748-1.7851-1.5244-3.7962-1.5586-5.5664-0.00013-0.0025 0.00004-0.0043 0-0.0059-0.04103-1.5603 0.03359-3.0482 0.22266-4.4551l-2.4668-3.6523 8.3613-13h-10.561l-3.5996 6.6797c-0.12 0.28-0.60031 1.0812-1.3203 2.2812-0.68 1.16-0.96109 1.8796-1.1211 2.5996h-0.19922c0.2-1.72 0.19922-2.0402 0.19922-4.2402v-7.3203h-9.3184z" transform="translate(361.52 22.658)"/>
<path d="m70.938 5.752v2.1406c1.8854 1.9649 2.8867 4.5275 2.8867 7.416 0 2.3016-0.6418 4.4491-1.8984 6.0723a0.71436 0.71436 0 0 1 -0.01172 0.01367 0.71436 0.71436 0 0 1 -0.04102 0.04687c-0.0075 0.0077-0.01544 0.01594-0.02344 0.02344-0.26756 0.32386-0.57488 0.59716-0.91211 0.83398v2.25l4.7832 7.1777a0.71436 0.71436 0 0 1 0.01367 0.01953 0.71436 0.71436 0 0 1 0.0293 0.03906c0.13312 0.20064 0.2065 0.42141 0.25195 0.64648h7.6426c3.32 0 6.5191-1.2004 9.0391-3.4004 2.68-2.4 3.9199-5.3997 3.9199-9.6797 0-8.52-5.7184-13.6-15.398-13.6h-10.281zm9.6406 8.1602h1.3594c3 0 5.041 2.1202 5.041 5.2402 0 3-2.081 5.1191-5.041 5.1191h-1.3594v-10.359z" transform="translate(361.52 22.658)"/>
<path d="m48.783 5.752v10.355a3.619 2.3714 61.145 0 1 2.1855 1.5098c0.79573 1.0441 1.1171 2.4326 1.1191 3.1211 0.0019 0.68847-0.12247 1.01-0.22266 1.2734-0.20022 0.52699-0.40467 0.79977-0.64648 1.1172-0.38158 0.50088-0.83618 1.0365-1.3418 1.6016l-0.07422 0.09375c-0.33721 0.42561-0.67805 0.8173-1.0195 1.2109v6.3965h9.4414v-8.5605l0.1582-0.08008c0.08 0.2 0.12016 0.35945 0.16016 0.43945 0.04 0.04 0.08117 0.20039 0.20117 0.40039l3.8398 7.8008h11.16l-6-9c-0.32-0.52-0.60039-0.72024-1.4004-1.2402v-0.24023c1.96-0.6 2.9206-1.1191 3.6406-2.0391 0.96-1.24 1.5195-3.0009 1.5195-4.9609 0-3.36-1.3993-5.9197-4.2793-7.6797-1.76-1.12-3.5204-1.5195-6.4004-1.5195h-12.041zm9.4414 7.3203h1.6797c1.28 0 2.1992 0.95836 2.1992 2.3184s-0.96055 2.2002-2.5605 2.2402h-1.3184v-4.5586z" transform="translate(361.52 22.658)"/>
<path d="m402.41 24.828c-0.8178-0.3065-1.5804-0.45279-2.2739-0.41555-1.3776 0.02723-2.6816 0.25078-3.9115 0.67494-0.004 0.0011-0.007 0.0048-0.011 0.0058-0.004 0.0011-0.008-0.000537-0.0115 0.000618-1.229 0.3547-2.3898 0.87249-3.4783 1.5502-1.1334 0.65268-2.2057 1.3973-3.2168 2.2327-0.001 0.000945-0.002 0.0018-0.003 0.0037-0.003 0.0037-0.009 0.0066-0.0145 0.0095-1.024 0.77221-1.9824 1.6728-2.8727 2.6968a1.2753 0.75114 62.878 0 0 -0.003 0.0089c-1.7656 2.1101-3.3245 4.4664-4.6707 7.0764-1.3872 2.6893-2.0308 6.0711-1.9289 10.08 0.0363 2.0243 0.76337 4.1634 2.0683 5.9454a1.2753 0.75114 62.878 0 0 0.0437 0.05575c1.2887 1.6319 2.7319 2.7843 4.2068 3.3461a1.2753 0.75114 62.878 0 0 0.0315 0.01198c1.6032 0.53922 3.1179 0.6802 4.5241 0.43025a1.2753 0.75114 62.878 0 0 0.0219 -0.0067c1.3288-0.30832 2.5967-0.71013 3.8026-1.2013l0.011-0.0058c2.5106-0.93926 4.7908-2.1352 6.8358-3.597a1.2753 0.75114 62.878 0 0 0.007 -0.0074c2.014-1.5148 3.9755-3.0808 5.875-4.7075a1.2753 0.75114 62.878 0 0 0.0379 -0.03445c0.0515-0.05463 0.3434-0.33368 0.81176-0.75365a1.2753 0.75114 62.878 0 0 0.0312 -0.02725c0.46369-0.49212 0.92509-1.0194 1.3815-1.5799l0.0233-0.03025c0.50659-0.53922 0.94805-1.047 1.3164-1.5165 0.20073-0.25589 0.3469-0.47203 0.45277-0.75325 0.053-0.14057 0.10221-0.2962 0.10155-0.57356-0.00066-0.27739-0.11328-0.79964-0.3935-1.2128a1.2753 0.75114 62.878 0 0 -1.1112 -0.57024l-0.80861 0.39241a1.2753 0.75114 62.878 0 0 -0.0287 0.01415c-0.49869 0.29048-1.0624 0.65282-1.6945 1.0884-0.57325 0.37786-1.1211 0.73301-1.6482 1.062-0.26338 0.1644-0.4752 0.28812-0.62539 0.37403-0.1501 0.08602-0.28803 0.14056-0.21405 0.11934a1.2753 0.75114 62.878 0 0 -0.0723 0.03112c-1.3787 0.68411-2.8992 1.4728-4.5615 2.3817-1.6533 0.83048-3.3407 1.6188-5.055 2.3602-1.699 0.66209-3.4135 1.1167-5.1491 1.3693-1.2086 0.12595-2.322 0.000994-3.3888-0.23778 0.29993-1.3878 0.72417-2.6532 1.3536-3.7261 2.0002 0.05195 3.8249-0.01625 5.392-0.25795a1.2753 0.75114 62.878 0 0 0.019 -0.0028c1.6435-0.32545 3.2678-0.7918 4.8776-1.3992a1.2753 0.75114 62.878 0 0 0.0219 -0.0067c2.2854-0.98835 4.278-2.5062 5.9718-4.5432a1.2753 0.75114 62.878 0 0 0.007 -0.0074c0.41852-0.52344 0.80899-1.0572 1.1748-1.6048 0.36296-0.54335 0.72263-1.1208 1.0778-1.7348a1.2753 0.75114 62.878 0 0 0.0187 -0.03701c0.76822-1.5586 1.1423-3.2577 1.0622-5.1154a1.2753 0.75114 62.878 0 0 -0.00056 -0.0052c-0.0946-2.0688-1.1361-4.289-2.7534-5.9909a1.2753 0.75114 62.878 0 0 -0.051 -0.05378c-0.83279-0.80165-1.7256-1.3452-2.6083-1.6058zm-0.6981 8.0068c-0.32044 0.91071-0.50247 1.9533-0.96015 2.7347a1.2753 0.75114 62.878 0 0 -0.01 0.0163c-0.87304 1.5986-1.947 2.928-3.2267 3.9872a1.2753 0.75114 62.878 0 0 -0.011 0.0058c-1.2289 1.0799-2.6382 1.8992-4.2282 2.4597-0.71618 0.23723-1.5044 0.20045-2.2532 0.31234 0.11882-0.15636 0.18126-0.2767 0.31911-0.44663l0.007-0.0074c1.9116-2.2594 3.8684-4.3367 5.8682-6.2284 1.3348-1.2627 2.8686-2.1357 4.4946-2.8333z"/>
</g>
</g>
</g>
</svg>
