<!-- Created with Inkscape (http://www.inkscape.org/) -->
<svg xmlns:rdf="http://www.w3.org/1999/02/22-rdf-syntax-ns#" xmlns="http://www.w3.org/2000/svg" height="19.885" width="125.38" version="1.1" xmlns:cc="http://creativecommons.org/ns#" xmlns:dc="http://purl.org/dc/elements/1.1/" viewBox="0 0 125.3747 19.885527">
<metadata>
<rdf:RDF>
<cc:Work rdf:about="">
<dc:format>image/svg+xml</dc:format>
<dc:type rdf:resource="http://purl.org/dc/dcmitype/StillImage"/>
<dc:title/>
</cc:Work>
</rdf:RDF>
</metadata>
<g fill="#333" transform="translate(-371.8 -34.212)">
<path opacity="0.99" d="m377.48 46.515 5.96 7.48h5.52l-8.64-10.68 8-9h-5.36l-6.44 7.76v-7.76h-4.72v19.68h4.72v-6.4l0.96-1.08z"/>
<path opacity="0.99" d="m455.39 46.635c2.24-0.84 3.68-3.12 3.68-5.88 0-1.92-0.76-3.72-2.08-4.88-1.28-1.12-2.72-1.56-5.28-1.56h-6.48v19.68h4.72v-6.88h0.88l4.6 6.88h5.28l-5.32-7.36zm-5.44-3.52v-4.8h1.4c2.16 0 3.04 0.68 3.04 2.44 0 1.6-0.88 2.36-2.84 2.36h-1.6z"/>
<path opacity="0.99" d="m480.78 53.995h5.84c2.92 0 5.08-0.68 7-2.24 2.24-1.88 3.56-4.68 3.56-7.64 0-2.92-1.32-5.72-3.52-7.52-1.84-1.52-4.16-2.28-7.04-2.28h-5.84v19.68zm4.72-4v-11.68h0.56c2.28 0 3.56 0.4 4.68 1.4 1.2 1.08 1.88 2.72 1.88 4.44 0 1.68-0.72 3.4-1.84 4.44-1.08 1-2.48 1.4-4.72 1.4h-0.56z"/>
<path opacity="0.99" style="color-rendering:auto;text-decoration-color:#000000;color:#000000;isolation:auto;mix-blend-mode:normal;shape-rendering:auto;solid-color:#000000;block-progression:tb;text-decoration-line:none;image-rendering:auto;white-space:normal;text-indent:0;text-transform:none;text-decoration-style:solid" d="m416.52 34.229c-1.2004-0.07552-2.4849 0.10518-3.8228 0.55276-2.6956 0.90178-4.659 2.5762-5.7293 4.7421-1.0702 2.1659-1.2456 4.8152-0.41118 7.6513 0.82903 2.8177 2.4213 4.8691 4.5074 5.9775s4.6545 1.266 7.4069 0.34523c3.9815-1.3319 6.3452-4.2451 6.701-8.2913l0.0213-0.2502-4.8895 0.78162-0.0368 0.11831c-0.58442 1.9638-1.4298 2.9364-3.1517 3.5124-1.2294 0.4113-2.2691 0.33216-3.1342-0.19007-0.82281-0.4967-1.4856-1.4428-1.9705-2.7793l12.467-4.1719-0.0544-0.18037-0.18813-0.64003c-0.86292-2.933-2.3937-5.0468-4.3968-6.1967-1.0015-0.57495-2.1181-0.90587-3.3185-0.98138zm-0.0272 0.38984c1.1438 0.07163 2.2008 0.38816 3.1497 0.9329 1.8979 1.0895 3.3746 3.1046 4.2165 5.9659l0.13383 0.45772-12.506 4.1835 0.064 0.18619c0.50819 1.5077 1.2553 2.5829 2.2265 3.1691 0.9712 0.58628 2.1533 0.66474 3.462 0.22692 1.7702-0.5922 2.733-1.7125 3.3418-3.6501l4.1408-0.66137c-0.4225 3.7667-2.6025 6.4338-6.3751 7.6959-2.6701 0.89323-5.1165 0.73308-7.0986-0.32002-1.982-1.0531-3.5102-3.0042-4.3154-5.7409-0.81154-2.7583-0.63359-5.2989 0.3879-7.3662s2.8889-3.6706 5.5004-4.5442c1.2964-0.43371 2.5277-0.60693 3.6715-0.5353zm-1.1036 3.3359c-0.49735-0.0038-1.0186 0.08416-1.5555 0.26377-2.1153 0.70764-3.2633 2.5838-3.045 4.9535l0.0233 0.24826 0.23662-0.07952 8.109-2.7114-0.11636-0.20752c-0.59477-1.0632-1.3495-1.8018-2.2362-2.1781-0.44337-0.18814-0.91847-0.28506-1.4158-0.28898zm-0.004 0.39178c0.44863 0.0033 0.86925 0.09215 1.2646 0.25989 0.718 0.30468 1.3268 0.96528 1.86 1.8231l-7.275 2.4341c-0.0845-2.07 0.85739-3.646 2.725-4.2708 0.50145-0.16775 0.97688-0.24964 1.4255-0.24632zm8.8504 3.7553-0.18812-0.63936c-1.7047-5.7942-6.02-8.2571-11.289-6.4946-5.3071 1.7754-7.66 6.5568-6.014 12.151 1.6342 5.5545 6.2422 8.0072 11.665 6.1932 3.9227-1.3123 6.2159-4.1424 6.5658-8.1221l-4.5189 0.72164c-0.59477 1.9986-1.5102 3.051-3.2792 3.6428-2.5382 0.84911-4.4432-0.31324-5.4403-3.2717l12.499-4.1812zm-13.25 1.0528c-0.21183-2.2994 0.87334-4.067 2.9116-4.7488 2.0767-0.69473 3.8139 0.04093 4.9722 2.1114l-7.8838 2.6374z"/>
<circle opacity="0.99" cy="44.155" cx="394.99" r="2.5338"/>
<circle opacity="0.99" cy="44.155" cx="434.22" r="2.5338"/>
<circle opacity="0.99" cy="44.155" cx="469.58" r="2.5338"/>
</g>
</svg>
